<svg xmlns="http://www.w3.org/2000/svg" version="1.1" xmlns:xlink="http://www.w3.org/1999/xlink" width="200" height="200"><svg xmlns="http://www.w3.org/2000/svg" version="1.1" xmlns:xlink="http://www.w3.org/1999/xlink" viewBox="0 0 200 200"><rect width="200" height="200" fill="url('#gradient')"></rect><defs><linearGradient id="SvgjsLinearGradient1001" gradientTransform="rotate(45 0.5 0.5)"><stop offset="0%" stop-color="#cdcdc8"></stop><stop offset="100%" stop-color="#cacac6"></stop></linearGradient></defs><g><g fill="#1b3855" transform="matrix(6.771491550330639,0,0,6.771491550330639,3.5756790182504687,150.11137902079741)" stroke="#1c7fb9" stroke-width="0.2"><path d="M10.73-5.36L10.73-5.20Q10.73-2.60 9.66-1.20Q8.58 0.20 6.63 0.20L6.63 0.20Q5.02 0.20 4.03-1.08L4.03-1.08L3.90 0L0.95 0L0.95-15L4.24-15L4.24-9.72Q5.16-10.76 6.61-10.76L6.61-10.76Q8.58-10.76 9.66-9.35Q10.73-7.93 10.73-5.36L10.73-5.36ZM7.43-5.40L7.43-5.40Q7.43-6.92 7.03-7.57Q6.62-8.22 5.78-8.22L5.78-8.22Q4.67-8.22 4.24-7.37L4.24-7.37L4.24-3.17Q4.66-2.33 5.80-2.33L5.80-2.33Q6.96-2.33 7.28-3.47L7.28-3.47Q7.43-4.02 7.43-5.40ZM12.21-10.57L15.29-10.57L15.40-9.33Q16.52-10.76 18.42-10.76L18.42-10.76Q20.42-10.76 21.12-9.17L21.12-9.17Q22.20-10.76 24.23-10.76L24.23-10.76Q27.44-10.76 27.53-6.88L27.53-6.88L27.53 0L24.23 0L24.23-6.67Q24.23-7.48 23.96-7.85Q23.68-8.22 22.96-8.22L22.96-8.22Q21.98-8.22 21.50-7.35L21.50-7.35L21.51-7.22L21.51 0L18.21 0L18.21-6.65Q18.21-7.48 17.95-7.85Q17.69-8.22 16.94-8.22L16.94-8.22Q16.00-8.22 15.50-7.35L15.50-7.35L15.50 0L12.21 0L12.21-10.57Z"></path></g></g></svg><style>@media (prefers-color-scheme: light) { :root { filter: none; } }
@media (prefers-color-scheme: dark) { :root { filter: none; } }
</style></svg>